<?xml version="1.0" standalone="no"?>
<!DOCTYPE svg PUBLIC "-//W3C//DTD SVG 20010904//EN"
 "http://www.w3.org/TR/2001/REC-SVG-20010904/DTD/svg10.dtd">
<svg version="1.0" xmlns="http://www.w3.org/2000/svg"
 width="300.000000pt" height="300.000000pt" viewBox="0 0 300.000000 300.000000"
 preserveAspectRatio="xMidYMid meet">
<metadata>
Created by potrace 1.11, written by Peter Selinger 2001-2013
</metadata>
<g transform="translate(0.000000,300.000000) scale(0.100000,-0.100000)"
fill="#000000" stroke="none">
<path d="M2100 2490 c-25 -4 -62 -10 -82 -14 -130 -21 -297 -106 -395 -202
-189 -184 -202 -440 -32 -622 l28 -30 -34 -63 c-19 -35 -51 -107 -71 -159 -21
-52 -38 -97 -40 -99 -2 -2 -24 18 -50 44 -62 60 -211 159 -283 186 -158 59
-352 85 -494 64 -20 -3 -52 -7 -71 -10 -18 -2 -71 -16 -117 -31 -208 -65 -368
-199 -433 -364 -23 -57 -28 -174 -11 -238 66 -254 365 -439 720 -448 66 -1
140 1 165 6 25 4 62 11 82 14 59 9 156 45 243 89 57 30 101 63 155 117 88 87
115 138 154 290 34 128 93 282 153 398 25 48 48 90 52 95 4 4 41 -8 82 -26 41
-19 88 -38 104 -42 17 -4 35 -9 40 -11 86 -24 183 -34 304 -30 75 2 145 6 156
9 119 29 192 55 265 95 72 40 122 77 171 129 294 306 91 724 -406 839 -78 18
-286 26 -355 14z m317 -57 c315 -59 533 -257 534 -483 1 -209 -179 -392 -461
-469 -99 -27 -136 -32 -255 -31 -172 1 -291 27 -419 92 l-48 25 85 125 c89
132 170 239 319 421 57 70 88 117 88 133 0 34 -27 31 -70 -9 -20 -17 -69 -61
-110 -97 -152 -130 -333 -326 -412 -443 l-26 -38 -30 38 c-176 223 -104 483
180 646 61 35 210 85 279 93 30 3 56 8 59 11 10 9 215 0 287 -14z m-1528 -887
c39 -5 52 -12 189 -101 91 -58 264 -227 349 -340 l60 -80 -12 -50 c-38 -169
-200 -314 -430 -384 -90 -28 -154 -36 -290 -36 -136 0 -186 8 -300 46 -300
100 -463 336 -389 561 65 199 314 360 594 385 36 3 66 6 67 7 4 4 124 -2 162
-8z"/>
</g>
</svg>
